<svg width="61" height="39" viewBox="0 0 61 39" fill="none" xmlns="http://www.w3.org/2000/svg">
<path d="M58.2 29C59.5 28.5 60.4 27.3 60.4 25.9V12.5C60.4 13.9 59.5 15.1 58.2 15.6L31.9 24.9V38.4L58.2 29Z" fill="#009BDE"/>
<path d="M58.2 9.4C59.5 9.8 60.4 11.1 60.4 12.5C60.4 13.9 59.5 15.1 58.2 15.6L47.9 19.3L31.9 13.6V0L58.2 9.4Z" fill="url(#paint0_linear_24_9637)"/>
<path d="M2.20001 22.9L28.5 13.6V0L2.20001 9.3C0.900012 9.8 0 11 0 12.4V25.9C0 24.5 0.900012 23.3 2.20001 22.9Z" fill="#009BDE"/>
<path d="M2.20001 29C0.900012 28.6 0 27.3 0 25.9C0 24.5 0.900012 23.3 2.20001 22.8L12.5 19.1L28.5 24.8V38.3L2.20001 29Z" fill="url(#paint1_linear_24_9637)"/>
<defs>
<linearGradient id="paint0_linear_24_9637" x1="55.7758" y1="24.1721" x2="25.7289" y2="-12.6878" gradientUnits="userSpaceOnUse">
<stop offset="0.1494" stop-color="#001970"/>
<stop offset="0.1509" stop-color="#001A71"/>
<stop offset="0.2171" stop-color="#003C8E"/>
<stop offset="0.2891" stop-color="#0059A7"/>
<stop offset="0.3696" stop-color="#0071BB"/>
<stop offset="0.4605" stop-color="#0084CB"/>
<stop offset="0.568" stop-color="#0091D6"/>
<stop offset="0.7079" stop-color="#0098DC"/>
<stop offset="1" stop-color="#009BDE"/>
</linearGradient>
<linearGradient id="paint1_linear_24_9637" x1="4.6238" y1="14.2177" x2="34.6731" y2="51.0807" gradientUnits="userSpaceOnUse">
<stop offset="0.1494" stop-color="#001970"/>
<stop offset="0.1509" stop-color="#001A71"/>
<stop offset="0.2171" stop-color="#003C8E"/>
<stop offset="0.2891" stop-color="#0059A7"/>
<stop offset="0.3696" stop-color="#0071BB"/>
<stop offset="0.4605" stop-color="#0084CB"/>
<stop offset="0.568" stop-color="#0091D6"/>
<stop offset="0.7079" stop-color="#0098DC"/>
<stop offset="1" stop-color="#009BDE"/>
</linearGradient>
</defs>
</svg>
