<svg width="187" height="30" viewBox="0 0 187 30" fill="none" xmlns="http://www.w3.org/2000/svg">
<path d="M146.975 29.7C143.775 29.7 140.275 29.2 137.175 28.3V23.1C140.275 24.1 143.675 24.8 146.875 24.8C151.675 24.8 152.675 23.8 152.675 21C152.675 15.3 136.575 19.9 136.575 8.8C136.575 3.8 140.275 0.599998 147.175 0.599998C150.075 0.599998 153.175 1 155.975 1.9V7C153.375 6.2 149.875 5.6 147.175 5.6C142.775 5.6 141.775 6.5 141.775 8.8C141.775 14.8 157.875 9.6 157.875 21C157.975 26.6 154.675 29.7 146.975 29.7Z" fill="#041E41"/>
<path d="M180.475 29.3L177.775 21.3H168.275L165.575 29.3H159.775L170.475 0.900002H175.575L186.375 29.3H180.475ZM174.475 12.9L172.875 7.9L171.175 12.9L169.975 16.4H175.675L174.475 12.9Z" fill="#041E41"/>
<path d="M13.975 8C13.775 6.5 13.275 5.4 12.375 4.6C11.475 3.8 10.175 3.4 8.47501 3.4C6.77501 3.4 5.37501 3.9 4.47501 4.8C3.47501 5.7 3.07501 7.2 3.07501 9.2V21.1C3.07501 23.1 3.57501 24.6 4.47501 25.5C5.47501 26.5 6.77501 26.9 8.47501 26.9C10.175 26.9 11.575 26.4 12.475 25.5C13.475 24.5 13.875 23.1 13.875 21.1V16.5H8.67502C8.37502 16.5 8.17501 16.4 7.97501 16.2C7.77501 16 7.67502 15.7 7.67502 15.4C7.67502 15.1 7.77501 14.9 7.97501 14.6C8.17501 14.4 8.37502 14.3 8.67502 14.3H15.475C15.775 14.3 15.975 14.4 16.175 14.6C16.375 14.8 16.375 15 16.375 15.3V21.1C16.375 22.6 16.175 23.9 15.775 24.9C15.375 25.9 14.775 26.8 14.075 27.4C13.375 28.1 12.475 28.5 11.575 28.8C10.575 29.1 9.575 29.2 8.375 29.2C7.275 29.2 6.17502 29.1 5.17502 28.8C4.17502 28.5 3.37502 28 2.67502 27.4C1.97502 26.7 1.37501 25.9 0.975006 24.9C0.575006 23.9 0.375 22.6 0.375 21.1V9.2C0.375 7.7 0.575006 6.5 0.975006 5.4C1.37501 4.4 1.97502 3.5 2.67502 2.9C3.37502 2.2 4.27502 1.8 5.17502 1.5C6.17502 1.2 7.17502 1.1 8.27502 1.1C9.47502 1.1 10.575 1.3 11.575 1.6C12.575 1.9 13.375 2.4 14.075 3C14.775 3.6 15.275 4.3 15.675 5.1C16.075 5.9 16.275 6.8 16.275 7.8C16.275 8.3 16.175 8.7 15.975 8.8C15.775 9 15.475 9.1 15.075 9.1C14.775 9.1 14.475 9 14.175 8.9C14.175 8.6 14.075 8.3 13.975 8Z" fill="#009BDE"/>
<path d="M21.075 1.9C21.075 1.3 21.375 1 22.075 1H28.875C29.975 1 31.075 1.1 32.075 1.4C33.075 1.6 33.975 2.1 34.675 2.7C35.475 3.3 36.075 4.1 36.475 5C36.875 6 37.175 7.2 37.175 8.6C37.175 9.8 36.975 10.8 36.675 11.7C36.375 12.6 35.975 13.3 35.375 13.9C34.875 14.5 34.175 15 33.475 15.3C32.775 15.6 31.975 15.9 31.075 16L36.975 27.4C37.075 27.5 37.175 27.7 37.175 27.9C37.175 28.2 36.975 28.5 36.675 28.8C36.375 29.1 36.075 29.2 35.675 29.2C35.375 29.2 35.075 29.1 34.875 28.8C34.675 28.5 34.475 28.2 34.275 27.9L28.375 16.4H23.475V28.2C23.475 28.5 23.375 28.8 23.075 29C22.775 29.2 22.475 29.2 22.175 29.2C21.875 29.2 21.575 29.1 21.275 29C20.975 28.8 20.875 28.6 20.875 28.2V1.9H21.075ZM23.675 3.3V14.1H28.875C30.575 14.1 31.975 13.7 33.075 12.8C34.175 12 34.675 10.6 34.675 8.6C34.675 6.7 34.175 5.3 33.075 4.5C31.975 3.7 30.575 3.3 28.875 3.3H23.675Z" fill="#009BDE"/>
<path d="M54.375 1.9C54.375 1.6 54.475 1.3 54.775 1.2C55.075 1.1 55.375 1 55.675 1C55.975 1 56.275 1.1 56.575 1.2C56.875 1.3 56.975 1.6 56.975 1.9V21.1C56.975 22.6 56.775 23.9 56.375 24.9C55.975 25.9 55.375 26.8 54.675 27.4C53.975 28.1 53.075 28.5 52.075 28.8C51.075 29.1 50.075 29.2 48.875 29.2C47.775 29.2 46.675 29.1 45.675 28.8C44.675 28.5 43.875 28 43.075 27.4C42.375 26.7 41.775 25.9 41.375 24.9C40.975 23.9 40.775 22.6 40.775 21.1V1.9C40.775 1.6 40.875 1.3 41.175 1.2C41.475 1.1 41.775 1 42.075 1C42.375 1 42.675 1.1 42.975 1.2C43.275 1.3 43.375 1.6 43.375 1.9V21.1C43.375 23.1 43.875 24.6 44.875 25.5C45.875 26.5 47.175 26.9 48.975 26.9C50.675 26.9 52.075 26.4 53.075 25.5C54.075 24.5 54.575 23.1 54.575 21.1V1.9H54.375Z" fill="#009BDE"/>
<path d="M62.075 1.9C62.075 1.3 62.475 1 63.175 1H70.275C71.375 1 72.375 1.1 73.375 1.4C74.375 1.7 75.175 2.2 75.875 2.8C76.575 3.4 77.175 4.3 77.575 5.3C77.975 6.3 78.175 7.6 78.175 9.1V9.5C78.175 11 77.975 12.2 77.575 13.3C77.175 14.3 76.575 15.2 75.875 15.8C75.175 16.5 74.275 16.9 73.375 17.2C72.375 17.5 71.375 17.6 70.175 17.6H64.575V28C64.575 28.3 64.475 28.6 64.175 28.8C63.875 29 63.575 29 63.275 29C62.975 29 62.675 28.9 62.375 28.8C62.075 28.6 61.975 28.4 61.975 28V1.9H62.075ZM64.575 3.3V15.5H70.075C71.775 15.5 73.175 15 74.075 14.1C75.075 13.1 75.475 11.7 75.475 9.7V9.2C75.475 7.2 74.975 5.7 74.075 4.8C73.075 3.8 71.775 3.4 70.075 3.4H64.575V3.3Z" fill="#009BDE"/>
<path d="M89.475 29.3C88.375 29.3 87.275 29.2 86.275 28.9C85.275 28.6 84.475 28.1 83.775 27.5C83.075 26.8 82.475 26 82.075 25C81.675 24 81.475 22.7 81.475 21.2V9.3C81.475 7.8 81.675 6.6 82.075 5.5C82.475 4.5 83.075 3.6 83.775 3C84.475 2.3 85.375 1.9 86.275 1.6C87.275 1.3 88.275 1.2 89.475 1.2C90.575 1.2 91.675 1.3 92.675 1.6C93.675 1.9 94.475 2.4 95.175 3C95.875 3.7 96.475 4.5 96.875 5.5C97.275 6.5 97.475 7.8 97.475 9.3V21.2C97.475 22.7 97.275 24 96.875 25C96.475 26 95.875 26.9 95.175 27.5C94.475 28.2 93.575 28.6 92.675 28.9C91.675 29.2 90.575 29.3 89.475 29.3ZM94.975 9.2C94.975 7.2 94.475 5.7 93.575 4.8C92.575 3.8 91.275 3.4 89.575 3.4C87.875 3.4 86.475 3.9 85.575 4.8C84.575 5.7 84.175 7.2 84.175 9.2V21.1C84.175 23.1 84.675 24.6 85.575 25.6C86.575 26.6 87.875 27 89.575 27C91.275 27 92.675 26.5 93.575 25.6C94.575 24.7 94.975 23.2 94.975 21.1V9.2Z" fill="#009BDE"/>
<path d="M127.375 0.900002L118.375 16.2L109.375 0.900002H104.675V29.3H110.075V20.8V15.9V12L116.975 23H119.775L124.575 15.1L126.575 12V15.9V20.4V29.3H131.975V0.900002H127.375Z" fill="#041E41"/>
</svg>
